<?xml version="1.0" encoding="utf-8"?>
<!-- Generator: Adobe Illustrator 19.0.0, SVG Export Plug-In . SVG Version: 6.00 Build 0)  -->
<svg version="1.1" id="Layer_1" xmlns="http://www.w3.org/2000/svg" xmlns:xlink="http://www.w3.org/1999/xlink" x="0px" y="0px"
	 viewBox="-324 511 430 60" style="enable-background:new -324 511 430 60;" xml:space="preserve">
<style type="text/css">
	.st0{fill:#FFFFFF;}
</style>
<path class="st0" d="M-305.6,539.9c-0.2,0-0.4-0.3-0.5-0.4c0,0-0.1-0.3-0.1-0.3c0,0,0.3,0,0.3,0.1
	C-305.8,539.4-305.7,539.5-305.6,539.9C-305.6,539.8-305.6,539.9-305.6,539.9 M-310.4,537.2c-0.1,0-0.5-0.3-0.6-0.5
	c-0.2-0.3-0.3-0.5-0.5-0.8c-0.2-0.2-0.3-0.4-0.4-0.8c0,0,0-0.2,0-0.2c0.2,0,0.4,0.3,0.4,0.5c0.1,0.1,0.1,0.2,0.2,0.3
	c0.1,0.1,0.1,0.3,0.2,0.4c0.1,0.2,0.3,0.3,0.4,0.5c0.1,0.1,0.2,0.2,0.2,0.3C-310.4,537-310.3,537.2-310.4,537.2 M-311.7,537.2
	c-0.1,0-0.1-0.1-0.2-0.1c-0.2-0.1-0.3-0.3-0.3-0.6c0,0,0,0,0,0c0.2,0,0.4,0.3,0.5,0.4C-311.7,536.9-311.7,537-311.7,537.2
	C-311.7,537.2-311.7,537.2-311.7,537.2 M-316.2,538.1C-316.2,538.1-316.2,538.1-316.2,538.1c-0.3,0-0.3-0.3-0.4-0.4
	c-0.1-0.1-0.1-0.3-0.2-0.4c-0.1-0.1-0.1-0.2-0.2-0.3c-0.1-0.1-0.1-0.3-0.2-0.4c0-0.1-0.1-0.1-0.1-0.2c-0.1-0.2-0.2-0.3-0.3-0.5
	c0-0.1,0-0.1-0.1-0.2c0-0.1-0.1-0.3-0.1-0.4c0-0.1,0-0.2,0-0.2c0,0,0,0,0,0c0.2,0,0.3,0.4,0.4,0.6c0.1,0.2,0.2,0.3,0.3,0.4
	c0.1,0.1,0.1,0.3,0.2,0.5c0.1,0.1,0.2,0.2,0.2,0.3c0.1,0.1,0.1,0.3,0.2,0.5c0.1,0.2,0.2,0.3,0.3,0.5
	C-316.2,537.9-316.2,538-316.2,538.1 M-317.1,532c0-0.1-0.1-0.2-0.1-0.2c0-0.1,0-0.2-0.1-0.3c-0.1-0.3-0.3-0.6-0.4-0.9
	c-0.1-0.1-0.1-0.3-0.1-0.5c0,0,0.1,0,0.1,0c0,0,0.1,0.1,0.1,0.1c0,0,0,0.1,0.1,0.1c0.1,0.1,0.1,0.2,0.2,0.3c0.1,0.2,0.1,0.5,0.2,0.7
	c0.1,0.1,0.2,0.3,0.3,0.4c0,0.1,0.1,0.2,0.1,0.3c0,0.1,0,0.2,0,0.2c0,0.1,0,0.1,0,0.1C-316.9,532.3-317,532.1-317.1,532
	 M-274.3,550.9c-0.2-0.9-2.9-0.5-5.1-0.7c-2-0.2-4.6-0.5-7.7-1.6c-2.9-1-5.7-2.2-8.2-3.5c0,0-1-0.5-1.1-0.6
	c-0.2-0.1-0.4-0.2-0.6-0.3c-0.1-0.1-0.3-0.2-0.4-0.2c-0.2-0.1-0.3-0.2-0.4-0.3c-0.2-0.1-0.4-0.2-0.5-0.3c-0.2-0.1-0.4-0.2-0.6-0.4
	c-0.1-0.1-0.2-0.1-0.4-0.2c-0.1-0.1-0.3-0.2-0.4-0.2c-0.2-0.1-0.3-0.2-0.5-0.4c-0.1-0.1-0.2-0.1-0.4-0.2c-0.1-0.1-0.3-0.2-0.4-0.3
	c-0.1-0.1-0.2-0.1-0.2-0.2c-0.1-0.1-0.3-0.3-0.4-0.4c-0.1-0.1-0.3-0.2-0.4-0.3c-0.1-0.1-0.2-0.2-0.3-0.2c-0.2-0.2-0.4-0.3-0.6-0.4
	c-0.1-0.1-0.3-0.2-0.4-0.3c-0.2-0.1-0.3-0.3-0.5-0.4c-0.1-0.1-0.2-0.2-0.3-0.2c-0.1-0.1-0.2-0.2-0.3-0.3c-0.1-0.1-0.2-0.2-0.3-0.3
	c-0.1-0.2-0.3-0.4-0.5-0.5c-0.1-0.1-0.1-0.1-0.2-0.2c0,0-0.1-0.1-0.2-0.2c-0.1-0.1-0.1-0.1-0.2-0.2c0,0-0.1-0.1-0.2-0.2
	c0,0-0.1-0.1-0.2-0.2c-0.1-0.1-0.1-0.1-0.1-0.2c-0.1-0.1-0.2-0.2-0.3-0.3c-0.1-0.1-0.1-0.1-0.2-0.2c0,0-0.1-0.1-0.1-0.2
	c0-0.1-0.1-0.1-0.1-0.1c-0.1-0.1-0.1,0-0.1,0c0,0-0.1,0.1,0,0.2c0.1,0.1,0.1,0.2,0.2,0.3c0,0,0,0,0,0c0,0,0,0.1,0.1,0.1
	c0,0.1,0.1,0.1,0.1,0.2c0.1,0.1,0.2,0.2,0.3,0.3c0,0,0.1,0.1,0.1,0.1c0.1,0.1,0.1,0.1,0.1,0.2c0,0.1,0.1,0.1,0.2,0.2
	c0,0,0.1,0.1,0.1,0.1c0,0,0.1,0.1,0.1,0.1c0.1,0,0.1,0.1,0.1,0.1c0.1,0.1,0.2,0.2,0.2,0.2c0.1,0.1,0.1,0.1,0.2,0.2
	c0.2,0.2,0.3,0.4,0.5,0.6c0.1,0.1,0.2,0.2,0.3,0.3c0.1,0.1,0.2,0.2,0.3,0.3c0.1,0.1,0.2,0.2,0.3,0.3c0.2,0.2,0.3,0.3,0.5,0.5
	c0.1,0.1,0.2,0.2,0.3,0.3c0.1,0.1,0.2,0.3,0.3,0.3c0.2,0.2,0.3,0.4,0.2,0.4c-0.1,0-0.4-0.2-0.6-0.3c-0.1-0.1-0.2-0.1-0.3-0.2
	c0,0-0.2-0.2-0.3-0.3c-0.1-0.1-0.2-0.2-0.3-0.3c-0.2-0.3-0.3-0.3-0.6-0.6c-0.2-0.2-0.5-0.4-0.7-0.6c-0.1-0.1-0.1-0.1-0.2-0.2
	c-0.1-0.1-0.1-0.1-0.2-0.2c-0.1-0.1-0.2-0.3-0.3-0.4c-0.1-0.1-0.2-0.2-0.3-0.3c0,0-0.1-0.1-0.1-0.1c-0.1,0-0.1-0.1-0.2-0.1
	c-0.1-0.2-0.3-0.4-0.4-0.5c-0.1-0.1-0.2-0.2-0.2-0.2c-0.1-0.2-0.2-0.4-0.4-0.6c-0.2-0.2-0.5-0.4-0.6-0.7c-0.2-0.3-0.3-0.6-0.5-0.8
	c-0.1-0.1-0.2-0.2-0.3-0.3c0-0.1-0.1-0.1-0.1-0.2c-0.1-0.1-0.2-0.3-0.3-0.4c-0.1-0.2-0.2-0.4-0.3-0.6c0,0-0.1-0.2-0.1-0.3
	c-0.1-0.1-0.1-0.2-0.2-0.3c-0.1-0.1-0.1-0.2-0.2-0.3c-0.1-0.1-0.1-0.2-0.1-0.3c0-0.1-0.1-0.2-0.2-0.2c-0.1-0.2-0.1-0.3-0.3-0.4
	c-0.1-0.1-0.2-0.2-0.2-0.2c-0.1,0,0,0.1,0,0.1c0.1,0.1,0.1,0.1,0.1,0.2c0.1,0.2,0.1,0.3,0.2,0.4c0,0.1,0.1,0.3,0.2,0.3
	c0.1,0.1,0.1,0.2,0.2,0.3c0.1,0.1,0.1,0.3,0.2,0.4c0.1,0.1,0.1,0.2,0.2,0.3c0.1,0.2,0.2,0.4,0.3,0.5c0.1,0.1,0.1,0.3,0.2,0.4
	c0.1,0.2,0.3,0.4,0.4,0.6c0.1,0.1,0.2,0.3,0.2,0.4c0.1,0.1,0.2,0.2,0.3,0.3c0.1,0.1,0.1,0.3,0.2,0.5c0.1,0.1,0.2,0.2,0.3,0.3
	c0.1,0.2,0.2,0.4,0.4,0.6c0.1,0.1,0.2,0.2,0.3,0.3c0.1,0.1,0.2,0.3,0.3,0.4c0.1,0.1,0.2,0.2,0.3,0.3c0.1,0.2,0.5,0.7,0.5,0.7
	c-0.2,0-0.6-0.4-0.8-0.6c-0.1-0.1-0.3-0.2-0.4-0.4c-0.1-0.2-0.2-0.4-0.4-0.6c-0.1-0.1-0.1-0.1-0.2-0.2c-0.1-0.1-0.2-0.3-0.3-0.4
	c0,0-0.1-0.1-0.1-0.1c-0.2-0.2-0.3-0.5-0.5-0.7c-0.1-0.1-0.2-0.2-0.2-0.3c-0.1-0.1-0.1-0.2-0.1-0.2c-0.1-0.1-0.2-0.2-0.2-0.3
	c-0.1-0.1-0.1-0.2-0.1-0.2c-0.1-0.1-0.2-0.3-0.3-0.4c-0.1-0.1-0.1-0.3-0.2-0.4c-0.2-0.3-0.4-0.6-0.6-0.9c0-0.1-0.1-0.2-0.1-0.2
	c-0.2-0.2-0.3-0.5-0.4-0.7c-0.1-0.1-0.1-0.2-0.1-0.3c-0.1-0.1-0.2-0.2-0.2-0.3c-0.1-0.1-0.1-0.2-0.1-0.3c-0.1-0.1-0.1-0.2-0.2-0.4
	c0-0.1-0.1-0.1-0.1-0.2c-0.2-0.3-0.3-0.6-0.5-0.9c-0.1-0.2-0.2-0.3-0.3-0.5c-0.1-0.2-0.2-0.4-0.2-0.5c0-0.1-0.1-0.2-0.1-0.4
	c-0.1-0.2-0.2-0.3-0.3-0.5c-0.1-0.1-0.1-0.3-0.1-0.4c0-0.1-0.1-0.1-0.1-0.1c0,0-0.1,0.1,0,0.2c0.1,0.2,0.2,0.4,0.2,0.5
	c0.1,0.2,0.2,0.5,0.3,0.7c0.1,0.1,0.1,0.2,0.2,0.4c0.1,0.2,0.2,0.4,0.3,0.6c0.1,0.1,0.1,0.2,0.2,0.3c0,0.1,0.1,0.1,0.1,0.2
	c0.1,0.1,0.1,0.3,0.1,0.4c0.1,0.1,0.2,0.3,0.2,0.4c0.3,0.7,0.7,1.4,1.1,2.1c0.1,0.2,0.2,0.4,0.3,0.6c0.1,0.2,0.3,0.3,0.4,0.5
	c0.1,0.2,0.1,0.4,0.2,0.5c0.1,0.2,0.3,0.4,0.5,0.7c0,0.1,0.1,0.1,0.1,0.2c0.1,0.1,0.1,0.2,0.2,0.3c0.1,0.1,0.1,0.3,0.2,0.4
	c0.1,0.1,0.2,0.2,0.3,0.3c0.1,0.1,0.2,0.3,0.3,0.5c0.1,0.1,0.2,0.2,0.3,0.3c0.1,0.2,0.6,0.7,0.7,0.9c0.2,0.2,0.5,0.6,0.7,0.9
	c0.1,0.1,0.2,0.3,0.2,0.4c-0.1,0.1-0.5-0.4-0.6-0.5c-0.2-0.2-0.3-0.4-0.5-0.6c0,0-0.5-0.4-0.5-0.5c0-0.1-0.1-0.1-0.1-0.2
	c-0.1-0.2-0.2-0.4-0.3-0.5c-0.1-0.1-0.1-0.1-0.2-0.2c-0.1-0.1-0.2-0.3-0.3-0.4c-0.1-0.2-0.3-0.4-0.5-0.6c-0.2-0.2-0.3-0.5-0.4-0.7
	c-0.1-0.1-0.2-0.2-0.3-0.3c0-0.1,0-0.1-0.1-0.2c-0.1-0.1-0.1-0.2-0.2-0.3c0-0.1-0.1-0.2-0.1-0.3c-0.2-0.3-0.3-0.5-0.5-0.8
	c-0.1-0.1-0.1-0.2-0.2-0.4c-0.1-0.2-0.3-0.4-0.4-0.6c-0.1-0.2-0.2-0.5-0.4-0.8c-0.1-0.2-0.2-0.3-0.3-0.5c-0.1-0.2-0.2-0.4-0.3-0.5
	c-0.1-0.2-0.2-0.3-0.3-0.5c-0.1-0.2-0.1-0.3-0.2-0.5c0-0.1-0.1-0.2-0.2-0.3c-0.1-0.1-0.1-0.2-0.1-0.4c-0.1-0.3-0.4-0.6-0.5-1
	c-0.1-0.2-0.2-0.5-0.3-0.7c0-0.1-0.1-0.3-0.1-0.4c-0.1-0.3-0.3-0.6-0.4-0.9c-0.1-0.2-0.1-0.3-0.2-0.5c0,0,0-0.1,0-0.1
	c-0.1-0.1-0.1-0.3-0.2-0.4c0-0.2-0.1-0.3-0.2-0.5c-0.2-0.5-0.4-1.1-0.6-1.7c0-0.1,0-0.2-0.1-0.3c-0.1-0.3-0.2-0.6-0.3-0.8
	c-0.1-0.1-0.2-0.1-0.2,0.1c0,0.2,0.1,0.2,0.1,0.4c0,0.1,0,0.2,0,0.2c0,0.1,0.1,0.2,0.1,0.3c0.1,0.2,0.1,0.3,0.1,0.5
	c0.1,0.2,0.2,0.4,0.2,0.7c0,0.1,0,0.2,0.1,0.3c0,0.1,0.1,0.2,0.1,0.3c0.1,0.3,0.2,0.6,0.3,0.8c0,0.2,0.1,0.3,0.1,0.5
	c0,0.1,0.1,0.2,0.1,0.3c0,0.1,0,0.2,0.1,0.2c0.1,0.2,0.1,0.4,0.2,0.5c0.1,0.1,0.1,0.3,0.2,0.5c0,0.1,0,0.1,0.1,0.2
	c0.2,0.5,0.4,1,0.6,1.4c0.1,0.1,0.1,0.2,0.1,0.3c0,0.1,0.1,0.2,0.1,0.3c0,0.1,0,0.1,0.1,0.2c0.1,0.1,0.2,0.2,0.2,0.4
	c0.2,0.4,0.3,0.7,0.6,1c0.2,0.3,0.3,0.7,0.4,1c0.1,0.2,0.2,0.3,0.3,0.5c0,0.1,0.1,0.2,0.1,0.2c0.1,0.2,0.2,0.3,0.3,0.5
	c0.1,0.1,0.1,0.2,0.2,0.3c0,0.1,0.1,0.4,0.1,0.4c0,0-0.2-0.1-0.3-0.1c-0.1-0.1-0.2-0.2-0.3-0.4c0-0.1-0.1-0.3-0.2-0.3
	c-0.1-0.2-0.3-0.4-0.4-0.6c-0.1-0.1-0.1-0.3-0.2-0.4c-0.1-0.2-0.2-0.5-0.4-0.7c-0.1-0.1-0.1-0.2-0.2-0.3c-0.1-0.1-0.1-0.2-0.2-0.3
	c-0.1-0.2-0.3-0.5-0.4-0.7c-0.1-0.2-0.1-0.3-0.2-0.5c0-0.1-0.1-0.1-0.1-0.2c-0.1-0.1-0.1-0.2-0.1-0.3c-0.1-0.1-0.2-0.3-0.2-0.4
	c-0.1-0.3-0.2-0.5-0.3-0.8c-0.1-0.1-0.2-0.2-0.2-0.3c-0.1-0.2-0.1-0.4-0.2-0.6c-0.2-0.5-0.5-1-0.7-1.6c0-0.1,0-0.2-0.1-0.3
	c-0.1-0.2-0.2-0.5-0.3-0.7c0-0.1-0.1-0.2-0.1-0.3c-0.1-0.2-0.1-0.3-0.2-0.5c0-0.1,0-0.1,0-0.2c-0.1-0.1-0.1-0.3-0.2-0.5
	c0-0.1-0.1-0.2-0.1-0.3c-0.1-0.2,0-0.4-0.1-0.5c-0.1-0.2-0.2-0.5-0.3-0.7c0-0.1-0.1-0.2-0.1-0.4c-0.1-0.1-0.1-0.3-0.2-0.5
	c-0.1-0.1-0.1-0.3-0.1-0.5c0-0.1-0.1-0.2-0.1-0.4c-0.1-0.2-0.1-0.4-0.2-0.6c0,0,0-0.1,0-0.1c0-0.1-0.1-0.1-0.1-0.1
	c-0.1,0-0.1,0.1-0.1,0.1c0,0.2,0.1,0.3,0.1,0.4c0.1,0.1,0.1,0.3,0.1,0.4c0,0.1,0,0.2,0,0.3c0,0.1,0.1,0.2,0.1,0.4c0,0.1,0,0.2,0,0.3
	c0.1,0.3,0.2,0.6,0.3,0.8c0,0.1,0,0.3,0.1,0.4c0,0.1,0.1,0.3,0.1,0.4c0,0.1,0.1,0.2,0.1,0.3c0.1,0.1,0.1,0.2,0.1,0.4
	c0.1,0.2,0,0.3,0.1,0.5c0.1,0.3,0.2,0.5,0.3,0.7c0,0.1,0,0.2,0.1,0.3c0.1,0.2,0.1,0.4,0.2,0.6c0.1,0.3,0.2,0.6,0.4,0.9
	c0.1,0.3,0.1,0.6,0.2,0.9c0.1,0.1,0.2,0.2,0.3,0.3c0,0.1,0,0.2,0.1,0.3c0,0.1,0.1,0.2,0.1,0.3c0,0.1,0,0.2,0.1,0.3
	c0,0.1,0.1,0.2,0.2,0.3c0.1,0.2,0.1,0.4,0.2,0.5c0.1,0.1,0.2,0.2,0.2,0.4c0.1,0.1,0.1,0.3,0.2,0.5c0.1,0.2,0.2,0.4,0.3,0.7
	c0.1,0.2,0.1,0.4,0.2,0.6c0.1,0.2,0.2,0.3,0.3,0.5c0.1,0.1,0.1,0.3,0.2,0.4c0.1,0.1,0.1,0.2,0.2,0.3c0.1,0.1,0.2,0.3,0.2,0.4
	c0.1,0.1,0.1,0.2,0.1,0.3c0.1,0.1,0.2,0.3,0.2,0.4c0.1,0.1,0.2,0.3,0.2,0.4c0,0.1,0.1,0.2,0.2,0.3c0.1,0.1,0.2,0.2,0.2,0.3
	c0.1,0.1,0.1,0.4,0.1,0.5c-0.1,0-0.3-0.2-0.3-0.2c-0.2-0.2-0.2-0.5-0.4-0.7c-0.2-0.2-0.3-0.4-0.4-0.6c-0.1-0.2-0.2-0.4-0.3-0.6
	c-0.1-0.1-0.2-0.2-0.3-0.4c-0.1-0.1-0.1-0.3-0.1-0.4c-0.1-0.2-0.2-0.3-0.3-0.5c-0.1-0.2-0.1-0.4-0.2-0.6c0-0.1-0.1-0.2-0.2-0.3
	c-0.1-0.1-0.1-0.2-0.1-0.3c-0.1-0.2-0.3-0.4-0.4-0.7c-0.1-0.2-0.2-0.5-0.3-0.8c-0.1-0.1-0.2-0.2-0.2-0.4c-0.1-0.2-0.1-0.4-0.2-0.5
	c-0.1-0.1-0.1-0.2-0.2-0.3c-0.1-0.2-0.1-0.3-0.2-0.5c-0.2-0.4-0.3-0.7-0.5-1.1c-0.1-0.1-0.1-0.3-0.1-0.4c-0.1-0.1-0.1-0.2-0.2-0.4
	c-0.1-0.3-0.2-0.7-0.3-1c-0.1-0.2-0.2-0.3-0.2-0.5c-0.1-0.3-0.1-0.6-0.2-0.8c-0.2-0.4-0.3-0.9-0.4-1.3c0-0.1-0.1-0.3-0.1-0.4
	c0-0.1-0.1-0.2-0.1-0.4c0-0.1-0.1-0.2-0.1-0.4c-0.1-0.4-0.2-0.7-0.3-1.1c0-0.1,0-0.2-0.1-0.4c0-0.1-0.1-0.1-0.1-0.2
	c0-0.1,0-0.2-0.1-0.2c-0.1-0.3-0.2-0.6-0.2-0.8c0-0.1,0-0.2-0.1-0.3c-0.1-0.4-0.2-0.8-0.3-1.2c0-0.1-0.1-0.1-0.1-0.1
	c-0.1,0-0.1,0.1,0,0.2c0,0.2,0.1,0.3,0.1,0.5c0,0.1,0,0.2,0,0.2c0,0.1,0,0.1,0,0.2c0.1,0.2,0.2,0.5,0.2,0.7c0,0.1,0,0.3,0,0.4
	c0.1,0.4,0.2,0.8,0.3,1.1c0.1,0.3,0.1,0.6,0.2,1c0,0.1,0,0.3,0.1,0.4c0,0.1,0.1,0.2,0.1,0.3c0,0.1,0,0.2,0.1,0.2
	c0.1,0.2,0.1,0.5,0.2,0.7c0.1,0.2,0.1,0.3,0.2,0.5c0,0.1,0,0.1,0,0.2c0,0.2,0.1,0.3,0.1,0.5c0.1,0.3,0.2,0.7,0.3,1
	c0.1,0.2,0.1,0.3,0.1,0.5c0.2,0.7,0.5,1.3,0.7,2c0,0.1,0.1,0.3,0.1,0.4c0.1,0.1,0.1,0.3,0.2,0.4c0.1,0.2,0.1,0.4,0.2,0.5
	c0.1,0.2,0.2,0.4,0.3,0.6c0,0.1,0.1,0.2,0.1,0.3c0,0.1,0.1,0.2,0.1,0.2c0.1,0.1,0.1,0.3,0.1,0.4c0.1,0.1,0.2,0.2,0.3,0.4
	c0.1,0.1,0.1,0.3,0.1,0.4c0.1,0.2,0.2,0.4,0.3,0.6c0,0.1,0.1,0.2,0.1,0.3c0,0.1,0.1,0.2,0.2,0.3c0,0,0,0,0,0c0,0,0,0,0,0.1
	c0,0,0,0.1,0,0.1c0,0.1,0.1,0.2,0.1,0.2c0,0,0.1,0.1,0.1,0.1c0,0,0,0,0.1,0.1c0.1,0.1,0.1,0.3,0.2,0.5c0.1,0.1,0.2,0.3,0.3,0.4
	c0.1,0.1,0.1,0.4,0,0.4c-0.3,0-0.3-0.4-0.4-0.6c-0.1-0.2-0.2-0.3-0.3-0.5c0,0,0-0.1-0.1-0.2c0-0.1,0-0.1-0.1-0.2
	c0-0.1,0-0.1-0.1-0.1c0-0.1-0.1-0.2-0.1-0.2c0,0,0,0,0,0c-0.1-0.2-0.2-0.5-0.3-0.6c0-0.1-0.1-0.1-0.2-0.2c-0.1-0.1-0.1-0.3-0.2-0.4
	c-0.1-0.1-0.1-0.2-0.2-0.4c-0.1-0.1-0.1-0.3-0.1-0.5c0-0.1-0.1-0.2-0.1-0.2c-0.1-0.2-0.1-0.4-0.2-0.5c0-0.1-0.1-0.2-0.2-0.2
	c-0.1-0.1-0.1-0.3-0.2-0.4c-0.2-0.3-0.3-0.6-0.5-0.9c-0.1-0.2-0.1-0.4-0.2-0.5c-0.1-0.2-0.2-0.3-0.2-0.4c0-0.1-0.1-0.2-0.1-0.3
	c-0.1-0.2-0.1-0.3-0.2-0.5c0-0.1-0.1-0.4-0.1-0.5c0-0.1-0.1-0.3-0.2-0.4c-0.1-0.2-0.1-0.4-0.2-0.6c-0.1-0.1-0.1-0.3-0.2-0.4
	c0-0.1-0.1-0.2-0.1-0.4c0-0.1-0.1-0.2-0.1-0.3c0-0.1-0.1-0.3-0.1-0.4c-0.1-0.2-0.1-0.3-0.2-0.5c0-0.1,0-0.4-0.1-0.5
	c-0.2-0.5-0.3-1-0.5-1.5c-0.1-0.2-0.1-0.5-0.2-0.7c0-0.1,0-0.2,0-0.3c0-0.1-0.1-0.3-0.1-0.4c0-0.1,0-0.2-0.1-0.3
	c0-0.1-0.1-0.2-0.1-0.3c-0.1-0.3-0.1-0.6-0.2-0.9c0-0.1,0-0.3-0.1-0.4c-0.1-0.4-0.1-0.8-0.2-1.1c0-0.1,0-0.2-0.1-0.3
	c-0.2-0.7-0.3-1.5-0.5-2.2c0-0.1,0-0.3,0-0.4c0-0.2-0.1-0.3-0.1-0.4c0-0.1,0-0.1,0-0.2c0-0.1-0.1-0.2-0.1-0.2
	c-0.1,0-0.1,0.1-0.1,0.2c0,0.2,0,0.3,0.1,0.4c0,0.1,0,0.2,0,0.3c0.1,0.2,0.1,0.5,0.1,0.7c0,0.1,0,0.2,0,0.3c0,0.1,0.1,0.2,0.1,0.3
	c0,0.1,0,0.3,0,0.5c0,0.1,0.1,0.3,0.1,0.4c0,0.1,0,0.2,0,0.3c0,0.1,0.1,0.2,0.1,0.3c0,0.1,0,0.3,0,0.4c0.2,0.6,0.2,1.3,0.4,1.9
	c0,0.1,0,0.2,0,0.3c0.1,0.5,0.3,1.1,0.4,1.6c0,0.1,0,0.2,0,0.3c0.1,0.2,0.1,0.4,0.1,0.6c0,0.1,0,0.2,0,0.2c0.1,0.2,0.1,0.4,0.2,0.6
	c0,0.1,0,0.2,0,0.3c0,0.1,0.1,0.2,0.1,0.2c0,0.1,0,0.2,0.1,0.3c0,0.1,0.1,0.1,0.1,0.2c0,0.1,0,0.2,0.1,0.3c0,0.1,0.1,0.3,0.2,0.4
	c0,0.1,0,0.2,0.1,0.3c0.1,0.2,0.2,0.4,0.2,0.6c0.1,0.2,0.1,0.3,0.1,0.5c0,0.1,0.1,0.2,0.1,0.3c0,0.1,0,0.2,0.1,0.2
	c0,0.1,0.1,0.2,0.2,0.3c0,0.1,0,0.3,0.1,0.4c0,0.1,0.1,0.2,0.1,0.3c0,0.1,0,0.2,0.1,0.4c0,0.1,0.1,0.2,0.1,0.3
	c0,0.1,0.1,0.2,0.1,0.3c0,0.1,0.1,0.1,0.1,0.2c0.1,0.1,0.1,0.2,0.1,0.4c0.1,0.2,0.1,0.4,0.1,0.6c0,0.1,0,0.2,0,0.2
	c-0.1,0-0.2-0.1-0.2-0.2c-0.1-0.1-0.2-0.3-0.2-0.4c0-0.1,0-0.1-0.1-0.2c-0.1-0.1-0.1-0.3-0.1-0.4c0-0.1-0.1-0.2-0.1-0.3
	c0-0.1,0-0.3-0.1-0.4c0-0.1-0.1-0.2-0.2-0.3c0-0.1,0-0.2-0.1-0.3c0-0.1-0.1-0.2-0.2-0.3c0-0.1,0-0.2-0.1-0.3c0-0.1-0.1-0.3-0.1-0.4
	c-0.1-0.1-0.1-0.2-0.2-0.4c0-0.1,0-0.1-0.1-0.2c0-0.1-0.1-0.2-0.1-0.3c0-0.1,0-0.1-0.1-0.2c0-0.1-0.1-0.2-0.1-0.3
	c0-0.1,0-0.2-0.1-0.3c-0.1-0.2-0.1-0.3-0.2-0.5c0-0.1,0-0.2-0.1-0.4c0-0.1-0.1-0.3-0.2-0.4c0-0.1,0-0.2-0.1-0.3
	c-0.1-0.1-0.1-0.3-0.2-0.4c0-0.1,0-0.3-0.1-0.4c-0.1-0.3-0.2-0.6-0.3-0.9c-0.1-0.3-0.1-0.7-0.2-1c-0.1-0.2-0.2-0.5-0.2-0.7
	c0-0.1,0-0.2-0.1-0.4c-0.1-0.3-0.2-0.6-0.3-0.9c0-0.1,0-0.3-0.1-0.5c0-0.2,0-0.3-0.1-0.5c0-0.1-0.1-0.2-0.1-0.3c0-0.1,0-0.3,0-0.4
	c0-0.1-0.2-0.7-0.2-0.8c0-0.1,0-0.3,0-0.4c0,0-0.1-0.3-0.1-0.4c0-0.1,0-0.1,0-0.3c0-0.1-0.1-0.4-0.1-0.5c0-0.1,0-0.3,0-0.3
	c0-0.1-0.1-0.3-0.1-0.4c0-0.2,0-0.3-0.1-0.5c0-0.1-0.1-0.2-0.1-0.3c0-0.1-0.1-0.2-0.1-0.3c0-0.1,0-0.3,0-0.3c0-0.1,0-0.3-0.1-0.4
	c0-0.2-0.1-0.4-0.1-0.5c0-0.1,0-0.1,0-0.2c0-0.2-0.1-0.4-0.2-0.3c-0.1,0-0.1,0.1-0.1,0.2c0,0.1,0,0.3,0.1,0.4c0,0.1,0,0.3,0,0.3
	c0,0.1,0,0.1,0,0.2c0,0,0,0.1,0,0.2c0,0.1,0,0.2,0,0.2c0,0.1,0,0.1,0,0.2c0,0,0,0.1,0,0.1c0,0.1,0,0.1,0,0.2c0,0.1,0,0.1,0,0.2
	c0,0.1,0,0.1,0,0.2c0,0.1,0.1,0.3,0.1,0.5c0,0.2,0,0.4,0.1,0.5c0,0.1,0,0.2,0,0.3c0,0.1,0.1,0.3,0.1,0.4c0,0.1,0,0.2,0,0.3
	c0,0.2,0.2,0.4,0.2,0.5c0,0.1,0,0.3,0,0.4c0,0.1,0.1,0.3,0.1,0.3c0,0.1,0,0.1,0,0.2s0.1,0.3,0.1,0.4c0,0.1,0,0.1,0,0.2
	c0,0.1,0.1,0.4,0.1,0.5c0,0.1,0,0.2,0,0.3c0,0.1,0.1,0.3,0.1,0.4c0,0.1,0,0.2,0,0.3c0,0.1,0.1,0.3,0.1,0.4c0,0.1,0,0.2,0,0.3
	c0,0.2,0.1,0.4,0.1,0.7c0,0.1,0.1,0.2,0.1,0.4c0,0.1,0,0.2,0.1,0.3c0,0.1,0.1,0.2,0.1,0.3c0,0.1,0,0.2,0,0.3c0,0.1,0.1,0.2,0.1,0.3
	c0,0.1,0,0.2,0,0.2c0,0.1,0.1,0.2,0.1,0.3c0,0.1,0,0.2,0,0.3c0,0.1,0.1,0.3,0.1,0.4c0,0.1,0,0.2,0.1,0.4c0.1,0.3,0.2,0.6,0.2,0.8
	c0,0.1,0,0.3,0.1,0.4c0,0.1,0.1,0.2,0.1,0.2c0,0.1,0,0.2,0,0.3c0,0.2,0.1,0.4,0.1,0.5c0.1,0.2,0.2,0.3,0.2,0.5
	c0.1,0.2,0.1,0.4,0.1,0.5c0.1,0.2,0.1,0.3,0.2,0.5c0.1,0.1,0,0.3,0.1,0.4c0.1,0.1,0.2,0.3,0.2,0.4c0.1,0.2,0.1,0.3,0.2,0.5
	c0,0.1,0,0.1,0,0.2c0.1,0.2,0.2,0.4,0.3,0.6c0,0.1,0,0.2,0.1,0.3c0.1,0.2,0.1,0.3,0.2,0.5c0.1,0.1,0.1,0.3,0.2,0.4
	c0.1,0.1,0.1,0.2,0.1,0.4c0.1,0.1,0.1,0.3,0.2,0.4c0,0.1,0,0.1,0.1,0.2c0.2,0.3,0.3,0.7,0.5,1c0.1,0.2,0.1,0.4,0.2,0.6
	c0.1,0.1,0.1,0.3,0.2,0.4c0,0.1,0.1,0.2,0.1,0.3c0.1,0.2,0.2,0.4,0.3,0.5c0,0,0.1,0.2,0.1,0.3c0,0,0,0,0,0c-0.1,0-0.2-0.1-0.2-0.1
	c-0.2-0.2-0.3-0.6-0.4-0.9c0-0.1-0.1-0.2-0.1-0.3c0-0.1,0-0.1-0.1-0.2c-0.1-0.2-0.2-0.3-0.3-0.5c-0.1-0.1-0.1-0.3-0.1-0.4
	c-0.2-0.5-0.5-1.1-0.8-1.6c-0.1-0.2-0.1-0.5-0.2-0.8c-0.1-0.2-0.2-0.3-0.2-0.4c-0.1-0.1-0.1-0.2-0.1-0.4c-0.1-0.2-0.2-0.3-0.2-0.5
	c0-0.1-0.1-0.2-0.1-0.3c-0.1-0.1-0.1-0.2-0.2-0.3c-0.1-0.2-0.1-0.3-0.1-0.5c0-0.1-0.1-0.2-0.1-0.3c0-0.1,0-0.2-0.1-0.3
	c-0.1-0.2-0.2-0.4-0.3-0.6c-0.1-0.1,0-0.3-0.1-0.5c0-0.1-0.1-0.2-0.2-0.3c-0.1-0.1,0-0.3,0-0.4c0-0.1-0.1-0.3-0.1-0.4
	c0-0.1,0-0.2-0.1-0.2c-0.1-0.2-0.1-0.3-0.2-0.5c0-0.1,0-0.2-0.1-0.2c0-0.1-0.1-0.2-0.2-0.3c0-0.2-0.1-0.3-0.1-0.5
	c-0.1-0.2-0.1-0.4-0.2-0.6c0-0.1,0-0.1,0-0.2c-0.1-0.2-0.1-0.4-0.1-0.6c0-0.1,0-0.2,0-0.3c-0.1-0.2-0.1-0.3-0.2-0.5
	c0-0.1,0-0.2-0.1-0.3c-0.1-0.3-0.2-0.6-0.2-0.8c0-0.1,0-0.1,0-0.2c-0.1-0.2-0.1-0.5-0.2-0.7c0-0.1,0-0.2-0.1-0.4
	c0-0.1-0.1-0.3-0.1-0.4c0-0.1,0-0.1,0-0.2c0-0.1,0-0.2,0-0.3c-0.1-0.4-0.2-0.8-0.3-1.2c0-0.1,0-0.3,0-0.4c0-0.1,0-0.2,0-0.3
	c0-0.1-0.1-0.2-0.1-0.3c0-0.2,0-0.3,0-0.5c0,0,0,0,0,0c0-0.2-0.1-0.6-0.1-0.7c0-0.2,0-0.4-0.1-0.6c0-0.1,0-0.2,0-0.4
	c0-0.2-0.1-0.4-0.1-0.6c0-0.1,0-0.2,0-0.4c0-0.1,0-0.2-0.1-0.2c-0.1,0-0.1,0.1-0.1,0.2c0,0.2,0,0.5,0,0.6c0,0.2,0,0.5,0,0.7
	c0,0.1,0.1,0.3,0.1,0.4c0,0.2,0.1,0.4,0.1,0.7v0c0,0.1,0,0.2,0,0.3c0,0,0,0,0,0c0,0,0,0,0,0c0,0,0,0,0,0h0c0,0,0,0.1,0,0.1
	c0,0.1,0,0.2,0,0.2c0.1,0.3,0.1,0.5,0.1,0.8c0.1,0.4,0.2,0.8,0.3,1.1c0,0.1,0,0.2,0,0.3c0,0.1,0.1,0.2,0.1,0.3c0,0.1,0,0.3,0,0.4
	c0,0.1,0.1,0.3,0.1,0.4c0,0.2,0,0.3,0.1,0.5c0,0.2,0.1,0.3,0.1,0.5c0,0.2,0.1,0.4,0.1,0.6c0,0.2,0.1,0.4,0.2,0.5c0,0.1,0,0.1,0,0.2
	c0,0.1,0.1,0.3,0.1,0.4c0,0.1,0,0.1,0,0.2c0.1,0.2,0.1,0.5,0.2,0.8c0,0.1,0,0.1,0,0.2c0,0.2,0.1,0.3,0.1,0.4c0,0.1,0,0.2,0,0.3
	c0,0.1,0.1,0.2,0.1,0.4c0,0.1,0,0.2,0.1,0.3c0,0.1,0.1,0.2,0.1,0.3c0.1,0.2,0.1,0.4,0.2,0.7c0,0.1,0.1,0.2,0.1,0.4
	c0,0.1,0,0.3,0.1,0.4c0.1,0.2,0.2,0.4,0.2,0.7c0.1,0.2,0.1,0.5,0.2,0.8c0,0.1,0,0.2,0.1,0.3c0.1,0.2,0.1,0.5,0.2,0.7
	c0,0.1,0,0.2,0.1,0.4c0.1,0.2,0.2,0.4,0.3,0.6c0.1,0.2,0.1,0.3,0.1,0.5c0.1,0.2,0.2,0.4,0.3,0.7c0.1,0.2,0.1,0.3,0.1,0.5
	c0.1,0.1,0.1,0.3,0.2,0.4c0,0.1,0.1,0.2,0.1,0.3c0,0.1,0.1,0.2,0.2,0.3c0.1,0.2,0.1,0.3,0.1,0.5c0.1,0.3,0.2,0.5,0.3,0.8
	c0,0.1,0,0.2,0.1,0.3c0.1,0.2,0.2,0.3,0.2,0.5c0.1,0.1,0.1,0.3,0.2,0.5c0.1,0.2,0.2,0.3,0.2,0.6c0,0,0,0,0,0.1
	c-0.1,0-0.1-0.1-0.2-0.1c-0.2-0.2-0.2-0.3-0.3-0.5c-0.2-0.3-0.3-0.6-0.5-1c-0.1-0.2-0.1-0.4-0.2-0.5c0-0.1-0.1-0.2-0.2-0.3
	c-0.1-0.2-0.1-0.3-0.2-0.5c-0.1-0.2-0.2-0.4-0.3-0.7c0-0.1,0-0.2-0.1-0.3c0-0.1-0.1-0.2-0.1-0.3c-0.1-0.1-0.1-0.3-0.2-0.5
	c-0.1-0.3-0.3-0.6-0.4-0.8c-0.1-0.3-0.1-0.5-0.2-0.8c0-0.1-0.1-0.2-0.1-0.3c0-0.1,0-0.2-0.1-0.3c-0.1-0.2-0.2-0.5-0.3-0.7
	c0-0.1-0.1-0.2-0.1-0.3c-0.1-0.1-0.1-0.3-0.2-0.5c-0.1-0.2-0.1-0.4-0.1-0.6c-0.2-0.4-0.4-0.9-0.5-1.3c0-0.1,0-0.2,0-0.3
	c-0.1-0.2-0.1-0.5-0.2-0.7c-0.1-0.3-0.1-0.6-0.2-0.8c-0.1-0.3-0.2-0.7-0.3-1c0-0.1,0-0.2,0-0.3c-0.1-0.3-0.2-0.6-0.2-0.8
	c0-0.1,0-0.3-0.1-0.4c-0.1-0.1-0.2-0.1-0.2,0.1c0,0.1,0.1,0.3,0.1,0.4c0,0.1,0,0.2,0,0.3c0,0.2,0.1,0.3,0.2,0.5
	c0.1,0.2,0.1,0.3,0.1,0.5c0,0.1,0.1,0.2,0.1,0.3c0.1,0.2,0.1,0.4,0.1,0.5c0,0.1,0.1,0.3,0.1,0.4c0,0.1,0,0.2,0,0.3
	c0,0.2,0.1,0.3,0.1,0.5c0,0.1,0,0.2,0,0.3c0,0.1,0.1,0.3,0.1,0.4c0,0.1,0,0.3,0.1,0.4c0.1,0.2,0.2,0.5,0.2,0.7
	c0.1,0.2,0.1,0.5,0.2,0.7c0.2,0.4,0.3,0.9,0.4,1.3c0,0.1,0,0.2,0.1,0.3c0.1,0.2,0.1,0.4,0.2,0.5c0,0.1,0.1,0.2,0.1,0.2
	c0.1,0.1,0.1,0.2,0.1,0.3c0,0.1,0.1,0.2,0.1,0.3c0,0.1,0,0.3,0.1,0.4c0,0.1,0.1,0.2,0.1,0.3c0,0.1,0,0.2,0.1,0.3
	c0,0.1,0.1,0.2,0.2,0.3c0,0.1,0.1,0.2,0.1,0.3c0,0.1,0.1,0.2,0.1,0.3c0,0.1,0,0.2,0.1,0.3c0,0.1,0.1,0.2,0.1,0.3
	c0,0.1,0,0.2,0.1,0.3c0.1,0.2,0.2,0.3,0.2,0.5c0.1,0.1,0.1,0.2,0.1,0.4c0.1,0.1,0.1,0.3,0.2,0.4c0.1,0.2,0.1,0.4,0.2,0.5
	c0.1,0.3,0.2,0.6,0.3,0.9c0.1,0.2,0.2,0.4,0.3,0.6c0.1,0.1,0.1,0.3,0.1,0.4c0.1,0.1,0.2,0.2,0.2,0.4c0,0.1,0.1,0.3,0.1,0.4
	c0.1,0.2,0.2,0.3,0.3,0.5c0,0.1,0.1,0.2,0.1,0.3c0.1,0.2,0.2,0.3,0.3,0.5c0,0.1,0.1,0.2,0.1,0.4c0.1,0.2,0.2,0.4,0.3,0.5
	c0.1,0.1,0.1,0.3,0.2,0.4c0.1,0.2,0.2,0.3,0.3,0.5c0.1,0.1,0.2,0.3,0.3,0.5c0.1,0.1,0.2,0.3,0.2,0.4c0.1,0.1,0.2,0.3,0.2,0.4
	c0.1,0.1,0.2,0.3,0.3,0.4c0.1,0.2,0.2,0.5,0.4,0.7c0.1,0.2,0.2,0.3,0.3,0.5c0.3,0.4,0.7,1.2,0.9,1.4c0.2,0.2,0.3,0.4,0.4,0.7
	c0.1,0.2,0.2,0.3,0.4,0.5c0.1,0.1,0.2,0.3,0.3,0.4l0.1,0.1c3.9,4.9,7.9,8.2,11.3,10.4l0,0c1.8,1.1,2.7,1.4,2.7,1.4
	c0.2,0.1,0.1,0.3,0,0.3l-20,12.8c-0.1,0-0.2,0.2-0.2,0.3c0,0.1,0.2,0,0.3,0c16.1-5.6,27.8-10.3,34.9-13.7
	C-276.4,553.9-274,551.9-274.3,550.9"/>
<path class="st0" d="M-54.6,544.8v-1.1h1.4c1.7,0,3.5,0,4.5,0.3c2.8,0.8,4.2,3,4.2,6.3c0,2.7-1.7,6.8-6.6,6.8
	c-1.4,0-2.9-0.6-3.6-0.9V544.8z M-48.9,560c6.6,0,10.5-5,10.5-9.8c0-2.7-1-7.4-7.6-9c-1.5-0.4-3.1-0.4-5.3-0.4l-11.7,0l0.2,0.2
	c0,0,2,0.3,2,3.8v21.8c0,3.5-2,3.8-2,3.8l-0.2,0.2h10.6l-0.2-0.2c0,0-2-0.3-2-3.8V559C-53.7,559.4-51.8,560-48.9,560 M105.9,561.3
	l-2.3,8c0,0-5.1,1.7-9.4,1.7c-11.5,0-17.1-7.9-17.1-15.1c0-8.9,6.8-15.6,17.6-15.6c6,0,10.2,2.1,10.2,2.1v6.4l-0.2-0.1
	c0,0-2.5-5.4-9.5-5.4c-6.8,0-11,5-11,12.6c0,7.6,4.4,11.8,10.8,11.8c7,0,10.8-6.2,10.8-6.2S105.9,561.3,105.9,561.3z M30.9,544.8
	v21.8c0,3.5,2,3.8,2,3.8l0.2,0.2H22.5l0.2-0.2c0,0,2-0.3,2-3.8v-21.8c0-3.5-2-3.8-2-3.8l-0.2-0.2h10.6l-0.2,0.2
	C32.9,541,30.9,541.3,30.9,544.8 M55.8,540.8c3.5,0,4-0.3,4-0.3v5.3l-0.2-0.2c0,0-1.5-2-5-2h-7.5v9.5h6.3c3.5,0,3.8-1.5,3.8-1.5
	l0.2-0.2v6.4l-0.2-0.2c0,0-0.3-1.5-3.8-1.5h-6.3v10.5v0c0,3.5,2,3.8,2,3.8l0.2,0.2H38.7l0.2-0.2c0,0,2-0.3,2-3.8v-21.8
	c0-3.5-2-3.8-2-3.8l-0.2-0.2L55.8,540.8L55.8,540.8z M18.4,561.5l0.3-0.2l-2.3,8c0,0-5.1,1.7-9.4,1.7c-11.5,0-17.1-7.9-17.1-15.1
	c0-8.9,6.8-15.6,17.6-15.6c6,0,10.2,2.1,10.2,2.1v6.4l-0.2-0.1c0,0-2.5-5.4-9.5-5.4c-6.8,0-11,5-11,12.6c0,7.6,4.4,11.8,10.8,11.8
	C14.6,567.7,18.4,561.5,18.4,561.5 M71.9,544.8v21.8c0,3.5,2,3.8,2,3.8l0.2,0.2H63.4l0.2-0.2c0,0,2-0.3,2-3.8v-21.8
	c0-3.5-2-3.8-2-3.8l-0.2-0.2H74l-0.2,0.2C73.8,541,71.9,541.3,71.9,544.8 M-32,559.2l4.6-9.6l4.2,9.6H-32L-32,559.2z M-13,566.5
	l-13.1-27.2l-13,27.2c-1.9,3.7-4.1,3.8-4.1,3.8l-0.2,0.2h8.9l-0.2-0.2c0,0-2.5-0.5-0.9-3.8l2.3-4.8h11.1l2.3,4.8
	c1.6,3.3-0.9,3.8-0.9,3.8l-0.2,0.2h12.2l-0.2-0.2C-8.9,570.3-11.2,570.3-13,566.5 M-137.3,566.5c0-3.5,0-18.3,0-21.8
	c0-3.5,2-3.8,2-3.8l0.2-0.2h-10.6l0.2,0.2c0,0,2,0.3,2,3.8c0,3.5,0,8.5,0,8.5h-14.6v-8.5c0-3.5,2-3.7,2-3.7l0.2-0.2h-10.6l0.2,0.2
	c0,0,2,0.2,2,3.7v21.8c0,3.5-2,3.8-2,3.8l-0.2,0.2h10.6l-0.2-0.2c0,0-2-0.3-2-3.8v-10.3h14.6v10.3c0,3.5-2,3.8-2,3.8l-0.2,0.2h10.6
	l-0.2-0.2C-135.3,570.3-137.3,570-137.3,566.5 M-193.1,540.8c-3.5,0-4-0.3-4-0.3l0,5.9l0.2-0.1c0,0,1.6-2.6,5.1-2.6h5v22.9
	c0,3.5-2,3.8-2,3.8l-0.2,0.2h10.6l-0.2-0.2c0,0-2-0.3-2-3.8l0-22.9h4.9c3.5,0,5.2,2.6,5.2,2.6l0.2,0.1l0-5.9c0,0-0.5,0.3-4,0.3
	C-174.3,540.8-193.1,540.8-193.1,540.8z M-122.8,559.2l4.6-9.6l4.2,9.6H-122.8L-122.8,559.2z M-103.7,566.5l-13.1-27.2l-13,27.2
	c-1.9,3.7-4.1,3.8-4.1,3.8l-0.2,0.2h8.9l-0.2-0.2c0,0-2.5-0.5-0.9-3.8l2.3-4.8h11.1l2.3,4.8c1.6,3.3-0.9,3.8-0.9,3.8l-0.2,0.2h12.2
	l-0.2-0.2C-99.7,570.3-101.9,570.3-103.7,566.5 M-82.8,540.8l0.2,0.2c0,0,2.6,0.7,0.6,3.8c-1,1.5-3.9,5.7-6.6,9.7
	c-2.7-4-5.6-8.3-6.5-9.8c-2-3.1,0.7-3.8,0.7-3.8l0.2-0.2h-12.2l0.2,0.2c0,0,1.8,0.3,4.1,3.8c1,1.5,5.9,8.4,8.6,12.5v9.2
	c0,3.5-2,3.8-2,3.8l-0.2,0.2H-85l-0.2-0.2c0,0-2-0.3-2-3.8c0-1.5,0-5.2,0-9.2c2.7-4.1,7.7-11,8.6-12.5c2.3-3.5,4.9-3.8,4.9-3.8
	l0.2-0.2C-73.4,540.8-82.8,540.8-82.8,540.8z M-239,567.7c-6.4,0-10.8-4.2-10.8-11.8c0-7.6,4.3-12.6,11-12.6c7,0,9.5,5.4,9.5,5.4
	l0.2,0.1v-6.4c0,0-4.2-2.1-10.2-2.1c-10.8,0-17.6,6.6-17.6,15.6c0,7.2,5.6,15.1,17.1,15.1c4.3,0,9.4-1.7,9.4-1.7l2.3-8l-0.3,0.2
	C-228.2,561.5-232,567.7-239,567.7 M-216.4,559.2l4.6-9.6l4.2,9.6H-216.4z M-197.4,566.5l-13.1-27.2l-13,27.2
	c-1.9,3.7-4.1,3.8-4.1,3.8l-0.2,0.2h8.9l-0.2-0.2c0,0-2.5-0.5-0.9-3.8l2.3-4.8h11.1l2.3,4.8c1.6,3.3-0.9,3.8-0.9,3.8l-0.2,0.2h12.2
	l-0.2-0.2C-193.3,570.3-195.6,570.3-197.4,566.5"/>
</svg>
